<svg width="182" height="54" viewBox="0 0 182 54" fill="none" xmlns="http://www.w3.org/2000/svg">
<path fill-rule="evenodd" clip-rule="evenodd" d="M26.0745 53.0743C40.4749 53.0743 52.149 41.4002 52.149 26.9998C52.149 12.5992 40.4749 0.925293 26.0745 0.925293C11.6739 0.925293 0 12.5992 0 26.9998C0 41.4002 11.6739 53.0743 26.0745 53.0743ZM26.0745 49.9454C38.747 49.9454 49.0201 39.6723 49.0201 26.9998C49.0201 14.3273 38.747 4.05423 26.0745 4.05423C13.402 4.05423 3.12894 14.3273 3.12894 26.9998C3.12894 39.6723 13.402 49.9454 26.0745 49.9454ZM26.0745 46.8164C37.019 46.8164 45.8911 37.9443 45.8911 26.9998C45.8911 16.0554 37.019 7.18317 26.0745 7.18317C15.1301 7.18317 6.25788 16.0554 6.25788 26.9998C6.25788 37.9443 15.1301 46.8164 26.0745 46.8164ZM26.0745 43.6875C35.2908 43.6875 42.7622 36.2161 42.7622 26.9998C42.7622 17.7834 35.2908 10.3121 26.0745 10.3121C16.8582 10.3121 9.38682 17.7834 9.38682 26.9998C9.38682 36.2161 16.8582 43.6875 26.0745 43.6875ZM39.6332 26.9998C39.6332 34.4881 33.5628 40.5585 26.0745 40.5585C18.5862 40.5585 12.5158 34.4881 12.5158 26.9998C12.5158 19.5115 18.5862 13.4411 26.0745 13.4411C33.5628 13.4411 39.6332 19.5115 39.6332 26.9998ZM36.5043 26.9998C36.5043 32.7599 31.8346 37.4296 26.0745 37.4296C20.3143 37.4296 15.6447 32.7599 15.6447 26.9998C15.6447 21.2396 20.3143 16.57 26.0745 16.57C31.8346 16.57 36.5043 21.2396 36.5043 26.9998Z" fill="#D1D1D1"/>
<mask id="mask0_83_23" style="mask-type:alpha" maskUnits="userSpaceOnUse" x="64" y="0" width="54" height="54">
<circle cx="91" cy="26.9998" r="26.0745" fill="#D9D9D9"/>
</mask>
<g mask="url(#mask0_83_23)">
<path fill-rule="evenodd" clip-rule="evenodd" d="M88.378 -9.84326L85.9354 -7.13046L95.2686 1.27317C93.8796 1.04445 92.4537 0.925477 90.9999 0.925477C90.7387 0.925477 90.4784 0.929318 90.219 0.936948L83.8417 -4.80521L81.3991 -2.09241L85.4163 1.5247C84.2077 1.78838 83.0304 2.13588 81.8909 2.5608L79.3054 0.232845L76.8628 2.94564L78.2879 4.22878C77.3413 4.75836 76.4311 5.34525 75.562 5.98477L74.7691 5.2709L72.3265 7.9837L72.7563 8.37069C72.011 9.10068 71.3093 9.87504 70.6555 10.6895L70.2329 10.309L67.7902 13.0217L68.5593 13.7142C68.0104 14.6395 67.517 15.6016 67.0838 16.5961L65.6966 15.347L63.254 18.0598L65.7842 20.3381C65.4762 21.5072 65.2473 22.7084 65.1036 23.9356L61.1603 20.3851L58.7177 23.0979L64.9825 28.7387C65.0941 30.4331 65.3675 32.0832 65.7874 33.6739L56.624 25.4231L54.1814 28.1359L69.8311 42.227C72.0118 45.2532 74.8253 47.793 78.0779 49.6524L93.8222 63.8286L96.2648 61.1158L86.9944 52.7687C88.3001 52.97 89.6378 53.0745 90.9999 53.0745C91.3313 53.0745 91.6612 53.0683 91.9896 53.056L98.3585 58.7906L100.801 56.0778L96.7573 52.4367C97.9589 52.1659 99.1292 51.8121 100.262 51.3817L102.895 53.7525L105.337 51.0397L103.845 49.6962C104.787 49.1619 105.693 48.5707 106.557 47.9272L107.431 48.7145L109.874 46.0017L109.347 45.5274C110.088 44.7934 110.786 44.0152 111.435 43.197L111.967 43.6764L114.41 40.9636L113.516 40.1584C114.06 39.2286 114.549 38.2622 114.977 37.2636L116.504 38.6384L118.946 35.9256L116.257 33.504C116.559 32.3285 116.78 31.1209 116.916 29.8875L121.04 33.6003L123.482 30.8875L117.003 25.0532C116.876 23.3404 116.585 21.6736 116.143 20.0687L125.576 28.5623L128.019 25.8495L111.733 11.1856C109.765 8.61008 107.329 6.41197 104.551 4.7188L88.378 -9.84326ZM102.373 7.66962L109.028 13.662C110.668 15.8749 111.91 18.4003 112.649 21.1326L94.5753 4.85939C97.3825 5.3092 100.016 6.28004 102.373 7.66962ZM88.9116 4.67187C87.5782 4.79501 86.2787 5.03489 85.0232 5.38119L113.123 30.6824C113.321 29.4843 113.424 28.2542 113.424 27C113.424 26.9138 113.424 26.8276 113.423 26.7416L88.9116 4.67187ZM112.082 34.6576L81.1814 6.8341C80.1918 7.31679 79.2431 7.87018 78.3418 8.48769L110.736 37.6553C111.255 36.696 111.706 35.6946 112.082 34.6576ZM108.716 40.7488L75.4753 10.8189C74.7225 11.5414 74.0199 12.316 73.3735 13.1368L106.629 43.0802C107.377 42.3529 108.075 41.5738 108.716 40.7488ZM103.781 45.4277L71.3356 16.214C70.8113 17.1678 70.3543 18.1639 69.9712 19.1959L100.958 47.097C101.942 46.6085 102.885 46.0499 103.781 45.4277ZM97.1418 48.5725L68.9054 23.1484C68.6888 24.3998 68.5759 25.6867 68.5759 27C68.5759 27.0207 68.5759 27.0414 68.576 27.0622L93.2838 49.3092C94.6072 49.1753 95.8965 48.9264 97.1418 48.5725ZM87.6858 49.1808L69.2838 32.6116C69.955 35.2167 71.0826 37.6385 72.5763 39.7867L80.2162 46.6656C82.4941 47.9174 85.0131 48.7849 87.6858 49.1808Z" fill="#D1D1D1"/>
</g>
<g clip-path="url(#clip0_83_23)">
<path d="M131.87 37.0505C133.29 25.4371 139.21 21.712 144.51 18.4114C149.922 15.0397 154.603 12.0865 154.04 0.990723C151.571 1.16715 149.14 1.6964 146.822 2.56234C147.057 11.3683 142.886 13.9799 138.838 16.5017C134.562 19.1646 130.524 21.6806 130.271 31.6093C130.609 33.4992 131.146 35.3238 131.87 37.0505Z" fill="#D1D1D1"/>
<path d="M137.604 14.5219C141.377 12.1703 144.428 10.2466 144.497 3.5637C137.63 6.92962 132.453 13.2266 130.601 20.8142C132.502 17.7024 135.145 16.0527 137.604 14.5219ZM138.293 46.1886C139.212 33.8115 144.643 29.4919 149.909 25.3098C155.63 20.7675 161.036 16.4631 160.732 1.3625C159.292 1.09465 157.832 0.948403 156.367 0.925293C156.971 13.3548 151.276 16.9434 145.742 20.3898C140.137 23.8816 134.351 27.5064 133.906 40.9339C135.133 42.8694 136.608 44.636 138.293 46.1886ZM166.218 32.5803C171.443 28.3866 176.372 24.3946 176.109 10.4786C174.7 8.76386 173.08 7.23448 171.287 5.92695C171.213 21.1301 165.303 25.8823 159.575 30.4782C154.184 34.8048 149.095 38.8983 148.722 52.0646C150.872 52.6825 153.133 53.0335 155.469 53.0755C156.084 40.7485 161.226 36.5875 166.218 32.5803ZM174.976 38.0192C171.233 40.2997 167.987 42.2992 167.61 50.3181C174.786 46.712 180.075 39.8939 181.582 31.7572C179.9 35.0147 177.351 36.5723 174.976 38.0192Z" fill="#D1D1D1"/>
<path d="M173.763 36.0291C177.771 33.5854 181.559 31.2793 181.098 20.5566L181.218 20.5519C180.607 18.1641 179.659 15.8756 178.401 13.756C177.85 26.196 172.694 30.3746 167.679 34.3992C162.908 38.2256 158.406 41.8714 157.81 53.0103C160.354 52.8303 162.857 52.2764 165.239 51.3664C165.382 41.1369 169.833 38.4238 173.763 36.0291ZM158.118 28.6595C163.848 24.0624 169.263 19.7078 168.946 4.40207C167.099 3.33493 165.128 2.4993 163.078 1.91406C163.244 17.7002 157.205 22.4943 151.359 27.1357C146.036 31.3621 141.012 35.3774 140.533 48.0308C142.35 49.3654 144.333 50.4585 146.431 51.2824C147.007 37.6124 152.648 33.0491 158.118 28.6595Z" fill="#D1D1D1"/>
</g>
<defs>
<clipPath id="clip0_83_23">
<rect width="52.149" height="52.149" fill="white" transform="translate(129.851 0.925293)"/>
</clipPath>
</defs>
</svg>
