<svg width="105" height="42" viewBox="0 0 105 42" fill="none" xmlns="http://www.w3.org/2000/svg">
<path d="M48.982 42H40.882L19.462 20.4L6.14195 30V42H0.141952V-2.86102e-06H6.14195V23.4L39.082 -2.86102e-06H47.842L24.022 17.1L48.982 42ZM104.577 21C104.577 23.92 104.037 26.66 102.957 29.22C101.877 31.74 100.377 33.96 98.4566 35.88C96.5366 37.8 94.2966 39.3 91.7366 40.38C89.2166 41.46 86.4966 42 83.5766 42H58.6766V36H83.5766C86.3366 36 88.8566 35.32 91.1366 33.96C93.4166 32.6 95.2166 30.8 96.5366 28.56C97.8966 26.28 98.5766 23.76 98.5766 21V6H58.6766V-2.86102e-06H104.577V21Z" fill="#222222"/>
</svg>
