<svg width="60" height="60" viewBox="0 0 60 60" fill="none" xmlns="http://www.w3.org/2000/svg">
<g clip-path="url(#clip0_87_120)">
<path d="M30.3947 6.81429C30.3947 6.37098 30.3535 5.93731 30.2746 5.51689C30.787 2.60619 33.328 0.394737 36.3858 0.394737L53.1858 0.394738C56.6128 0.394738 59.3911 3.17293 59.3911 6.6V23.4C59.3911 26.3868 57.2807 28.8808 54.4698 29.4722C54.121 29.4187 53.7638 29.3909 53.4 29.3909H36.6C33.173 29.3909 30.3947 26.6128 30.3947 23.1857V6.81429ZM29.4723 5.53027C29.4187 5.87903 29.391 6.23627 29.391 6.6V23.4C29.391 26.8271 26.6128 29.6053 23.1857 29.6053H6.81429C6.37108 29.6053 5.93749 29.6465 5.51716 29.7253C2.60632 29.2131 0.394737 26.672 0.394737 23.6143V6.81429C0.394737 3.38721 3.17293 0.609021 6.6 0.609021H23.4C26.3869 0.609021 28.8808 2.71932 29.4723 5.53027ZM36.6 59.3911C33.6131 59.3911 31.119 57.2806 30.5277 54.4695C30.5812 54.1208 30.6089 53.7636 30.6089 53.4V36.6C30.6089 33.173 33.3872 30.3947 36.8142 30.3947H53.1858C53.6291 30.3947 54.0628 30.3535 54.4832 30.2746C57.3938 30.787 59.6053 33.328 59.6053 36.3858V53.1858C59.6053 56.6128 56.827 59.3911 53.4 59.3911H36.6ZM29.6053 53.1858C29.6053 53.629 29.6465 54.0626 29.7253 54.4829C29.213 57.3936 26.6719 59.6053 23.6143 59.6053H6.81429C3.38721 59.6053 0.609014 56.827 0.609014 53.4L0.609015 36.6C0.609015 33.6131 2.71945 31.119 5.53054 30.5277C5.87921 30.5812 6.23636 30.6089 6.6 30.6089H23.4C26.8271 30.6089 29.6053 33.3872 29.6053 36.8142V53.1858Z" fill="black" stroke="white" stroke-width="0.789474"/>
<path d="M14.1641 20.3999V10.6979H15.5312V20.3999H14.1641Z" fill="white"/>
<path d="M39.3643 20.3999V10.6979H41.4517L44.671 18.9887H44.7445L47.9491 10.6979H49.963V20.3999H48.6841L48.7723 12.065H48.6547L45.3178 20.3999H43.9948L40.6873 12.0503H40.5697L40.6579 20.3999H39.3643Z" fill="white"/>
<path d="M11.4639 49.7998V40.0978H12.8163V44.7283C13.3553 44.5421 13.8796 44.2922 14.3892 43.9786C14.9086 43.6552 15.3839 43.2926 15.8151 42.8908C16.2463 42.4792 16.6236 42.0382 16.947 41.5678C17.2704 41.0876 17.5154 40.5976 17.682 40.0978H19.1814C18.9854 40.6662 18.7257 41.2003 18.4023 41.7001C18.0887 42.1999 17.7261 42.6556 17.3145 43.0672C16.9127 43.4788 16.4913 43.8365 16.0503 44.1403C15.6191 44.4441 15.1879 44.6891 14.7567 44.8753V45.0664C15.2369 45.0664 15.6681 45.1301 16.0503 45.2575C16.4423 45.3849 16.7951 45.5711 17.1087 45.8161C17.4321 46.0611 17.7163 46.3747 17.9613 46.7569C18.2161 47.1391 18.4464 47.5899 18.6522 48.1093L19.2696 49.7998H17.7555L17.3586 48.5062C17.1332 47.8888 16.8686 47.3841 16.5648 46.9921C16.2708 46.5903 15.8935 46.2914 15.4329 46.0954C14.9821 45.8896 14.399 45.7867 13.6836 45.7867H12.8163V49.7998H11.4639Z" fill="white"/>
<path d="M42.3381 49.3325L42.1323 48.0536C42.2401 48.0732 42.3381 48.083 42.4263 48.083C42.5145 48.083 42.5929 48.083 42.6615 48.083C43.1907 48.083 43.5876 47.9997 43.8522 47.8331C44.1266 47.6665 44.3128 47.4166 44.4108 47.0834C44.5088 46.7404 44.5578 46.319 44.5578 45.8192V39.4982H45.8955V45.8339C45.8955 46.5395 45.8024 47.1569 45.6162 47.6861C45.4398 48.2153 45.1311 48.6269 44.6901 48.9209C44.2491 49.2051 43.6317 49.3472 42.8379 49.3472C42.7791 49.3472 42.7105 49.3472 42.6321 49.3472C42.5537 49.3472 42.4557 49.3423 42.3381 49.3325Z" fill="white"/>
</g>
<defs>
<clipPath id="clip0_87_120">
<rect width="60" height="60" fill="white"/>
</clipPath>
</defs>
</svg>
