<svg width="60" height="60" viewBox="0 0 60 60" fill="none" xmlns="http://www.w3.org/2000/svg">
<g clip-path="url(#clip0_59_208)">
<path d="M30.3947 6.81429C30.3947 6.37098 30.3535 5.93731 30.2746 5.51689C30.787 2.60619 33.328 0.394737 36.3858 0.394737L53.1858 0.394738C56.6128 0.394738 59.3911 3.17293 59.3911 6.6V23.4C59.3911 26.3868 57.2807 28.8808 54.4698 29.4722C54.121 29.4187 53.7638 29.3909 53.4 29.3909H36.6C33.173 29.3909 30.3947 26.6128 30.3947 23.1857V6.81429ZM29.4723 5.53027C29.4187 5.87903 29.391 6.23627 29.391 6.6V23.4C29.391 26.8271 26.6128 29.6053 23.1857 29.6053H6.81429C6.37108 29.6053 5.93749 29.6465 5.51716 29.7253C2.60632 29.2131 0.394737 26.672 0.394737 23.6143V6.81429C0.394737 3.38721 3.17293 0.609021 6.6 0.609021H23.4C26.3869 0.609021 28.8808 2.71932 29.4723 5.53027ZM36.6 59.3911C33.6131 59.3911 31.119 57.2806 30.5277 54.4695C30.5812 54.1208 30.6089 53.7636 30.6089 53.4V36.6C30.6089 33.173 33.3872 30.3947 36.8142 30.3947H53.1858C53.6291 30.3947 54.0628 30.3535 54.4832 30.2746C57.3938 30.787 59.6053 33.328 59.6053 36.3858V53.1858C59.6053 56.6128 56.827 59.3911 53.4 59.3911H36.6ZM29.6053 53.1858C29.6053 53.629 29.6465 54.0626 29.7253 54.4829C29.213 57.3936 26.6719 59.6053 23.6143 59.6053H6.81429C3.38721 59.6053 0.609014 56.827 0.609014 53.4L0.609015 36.6C0.609015 33.6131 2.71945 31.119 5.53054 30.5277C5.87921 30.5812 6.23636 30.6089 6.6 30.6089H23.4C26.8271 30.6089 29.6053 33.3872 29.6053 36.8142V53.1858Z" fill="white" stroke="black" stroke-width="0.789474"/>
<path d="M14.1643 20.3999V10.6979H15.5314V20.3999H14.1643Z" fill="black"/>
<path d="M39.3643 20.3999V10.6979H41.4517L44.671 18.9887H44.7445L47.9491 10.6979H49.963V20.3999H48.6841L48.7723 12.065H48.6547L45.3178 20.3999H43.9948L40.6873 12.0503H40.5697L40.6579 20.3999H39.3643Z" fill="black"/>
<path d="M11.4642 49.8V40.098H12.8166V44.7285C13.3556 44.5423 13.8799 44.2924 14.3895 43.9788C14.9089 43.6554 15.3842 43.2928 15.8154 42.891C16.2466 42.4794 16.6239 42.0384 16.9473 41.568C17.2707 41.0878 17.5157 40.5978 17.6823 40.098H19.1817C18.9857 40.6664 18.726 41.2005 18.4026 41.7003C18.089 42.2001 17.7264 42.6558 17.3148 43.0674C16.913 43.479 16.4916 43.8367 16.0506 44.1405C15.6194 44.4443 15.1882 44.6893 14.757 44.8755V45.0666C15.2372 45.0666 15.6684 45.1303 16.0506 45.2577C16.4426 45.3851 16.7954 45.5713 17.109 45.8163C17.4324 46.0613 17.7166 46.3749 17.9616 46.7571C18.2164 47.1393 18.4467 47.5901 18.6525 48.1095L19.2699 49.8H17.7558L17.3589 48.5064C17.1335 47.889 16.8689 47.3843 16.5651 46.9923C16.2711 46.5905 15.8938 46.2916 15.4332 46.0956C14.9824 45.8898 14.3993 45.7869 13.6839 45.7869H12.8166V49.8H11.4642Z" fill="black"/>
<path d="M42.3381 49.3323L42.1323 48.0534C42.2401 48.073 42.3381 48.0828 42.4263 48.0828C42.5145 48.0828 42.5929 48.0828 42.6615 48.0828C43.1907 48.0828 43.5876 47.9995 43.8522 47.8329C44.1266 47.6663 44.3128 47.4164 44.4108 47.0832C44.5088 46.7402 44.5578 46.3188 44.5578 45.819V39.498H45.8955V45.8337C45.8955 46.5393 45.8024 47.1567 45.6162 47.6859C45.4398 48.2151 45.1311 48.6267 44.6901 48.9207C44.2491 49.2049 43.6317 49.347 42.8379 49.347C42.7791 49.347 42.7105 49.347 42.6321 49.347C42.5537 49.347 42.4557 49.3421 42.3381 49.3323Z" fill="black"/>
</g>
<defs>
<clipPath id="clip0_59_208">
<rect width="60" height="60" fill="white"/>
</clipPath>
</defs>
</svg>
