<svg width="91" height="63" viewBox="0 0 91 63" fill="none" xmlns="http://www.w3.org/2000/svg">
    <rect x="6.63574" y="7" width="77" height="13" fill="#222222"/>
    <rect y="13.8094" width="9.63001" height="18.1388" transform="rotate(-45 0 13.8094)" fill="#E5E5E5"/>
    <rect x="70.6357" y="6.80945" width="9.63001" height="18.1388" transform="rotate(-45 70.6357 6.80945)" fill="#E5E5E5"/>
    <rect x="7" y="43" width="77" height="13" fill="#222222"/>
    <rect y="49.8094" width="9.63001" height="18.1388" transform="rotate(-45 0 49.8094)" fill="#E5E5E5"/>
    <rect x="71" y="42.5574" width="6.36823" height="18.5007" transform="rotate(-45 71 42.5574)" fill="#E5E5E5"/>
    <rect x="79" y="42" width="7" height="5" fill="#E5E5E5"/>
    <rect x="30" y="25" width="54" height="13" fill="#222222"/>
    <rect x="38.4033" y="20.1026" width="6.36408" height="18.3192" transform="rotate(45 38.4033 20.1026)" fill="#E5E5E5"/>
    <rect x="83.9536" y="25" width="6.36408" height="18.3192" transform="rotate(45 83.9536 25)" fill="#E5E5E5"/>
    <rect x="28" y="24" width="6" height="5" fill="#E5E5E5"/>
    <rect x="80" y="34" width="6" height="5" fill="#E5E5E5"/>
</svg>
